HIERARCHY
ROOT Hips
{
    OFFSET   0.000000   0.000000   0.000000
    CHANNELS 6 Xposition Yposition Zposition Zrotation Xrotation Yrotation
    JOINT Chest
    {
        OFFSET   0.000000   8.007240   0.000000
        CHANNELS 3 Zrotation Xrotation Yrotation
        JOINT Chest2
        {
            OFFSET   0.000000  22.077100   0.000000
            CHANNELS 3 Zrotation Xrotation Yrotation
            JOINT Neck
            {
                OFFSET   0.000000  23.254800   0.000000
                CHANNELS 3 Zrotation Xrotation Yrotation
                JOINT Head
                {
                    OFFSET   0.000000  14.370000   1.956600
                    CHANNELS 3 Zrotation Xrotation Yrotation
                    End Site
                    {
                        OFFSET   0.000000  19.566000   0.000000
                    }
                }
            }
            JOINT LeftCollar
            {
                OFFSET   3.911900  19.017000  -0.467064
                CHANNELS 3 Zrotation Xrotation Yrotation
                JOINT LeftShoulder
                {
                    OFFSET  10.383700   0.000000   0.000000
                    CHANNELS 3 Zrotation Xrotation Yrotation
                    JOINT LeftElbow
                    {
                        OFFSET  26.662100   0.001476   0.000517
                        CHANNELS 3 Zrotation Xrotation Yrotation
                        JOINT LeftWrist
                        {
                            OFFSET  28.869000  -0.000025  -0.000106
                            CHANNELS 3 Zrotation Xrotation Yrotation
                            JOINT LeftFinger0
                            {
                                OFFSET   2.044660  -2.323460   3.252850
                                CHANNELS 3 Zrotation Xrotation Yrotation
                                JOINT LeftFinger01
                                {
                                    OFFSET   3.088130   0.000000   0.000000
                                    CHANNELS 3 Zrotation Xrotation Yrotation
                                    JOINT LeftFinger02
                                    {
                                        OFFSET   2.639460   0.000000   0.000000
                                        CHANNELS 3 Zrotation Xrotation Yrotation
                                        End Site
                                        {
                                            OFFSET   2.582190   0.000000   0.000000
                                        }
                                    }
                                }
                            }
                            JOINT LeftFinger1
                            {
                                OFFSET   8.364480   0.000000   3.252850
                                CHANNELS 3 Zrotation Xrotation Yrotation
                                JOINT LeftFinger11
                                {
                                    OFFSET   4.646930   0.000000   0.000000
                                    CHANNELS 3 Zrotation Xrotation Yrotation
                                    JOINT LeftFinger12
                                    {
                                        OFFSET   2.323460   0.000000   0.000000
                                        CHANNELS 3 Zrotation Xrotation Yrotation
                                        End Site
                                        {
                                            OFFSET   2.273050   0.000000   0.000000
                                        }
                                    }
                                }
                            }
                            JOINT LeftFinger2
                            {
                                OFFSET   8.364490   0.000015   1.078090
                                CHANNELS 3 Zrotation Xrotation Yrotation
                                JOINT LeftFinger21
                                {
                                    OFFSET   5.111620   0.000000   0.000000
                                    CHANNELS 3 Zrotation Xrotation Yrotation
                                    JOINT LeftFinger22
                                    {
                                        OFFSET   2.788160   0.000016   0.000000
                                        CHANNELS 3 Zrotation Xrotation Yrotation
                                        End Site
                                        {
                                            OFFSET   2.727660   0.000000   0.000000
                                        }
                                    }
                                }
                            }
                            JOINT LeftFinger3
                            {
                                OFFSET   7.899780   0.000017  -1.078090
                                CHANNELS 3 Zrotation Xrotation Yrotation
                                JOINT LeftFinger31
                                {
                                    OFFSET   4.646930   0.000000   0.000000
                                    CHANNELS 3 Zrotation Xrotation Yrotation
                                    JOINT LeftFinger32
                                    {
                                        OFFSET   2.323470   0.000000   0.000000
                                        CHANNELS 3 Zrotation Xrotation Yrotation
                                        End Site
                                        {
                                            OFFSET   2.273050   0.000000   0.000000
                                        }
                                    }
                                }
                            }
                            JOINT LeftFinger4
                            {
                                OFFSET   7.435090   0.000000  -3.252850
                                CHANNELS 3 Zrotation Xrotation Yrotation
                                JOINT LeftFinger41
                                {
                                    OFFSET   3.717550   0.000000   0.000000
                                    CHANNELS 3 Zrotation Xrotation Yrotation
                                    JOINT LeftFinger42
                                    {
                                        OFFSET   1.858770   0.000000   0.000000
                                        CHANNELS 3 Zrotation Xrotation Yrotation
                                        End Site
                                        {
                                            OFFSET   1.818440   0.000000   0.000000
                                        }
                                    }
                                }
                            }
                        }
                    }
                }
            }
            JOINT RightCollar
            {
                OFFSET  -3.911900  19.017000  -0.467063
                CHANNELS 3 Zrotation Xrotation Yrotation
                JOINT RightShoulder
                {
                    OFFSET -10.383700   0.000019   0.000000
                    CHANNELS 3 Zrotation Xrotation Yrotation
                    JOINT RightElbow
                    {
                        OFFSET -26.662100   0.001175   0.000102
                        CHANNELS 3 Zrotation Xrotation Yrotation
                        JOINT RightWrist
                        {
                            OFFSET -28.869000   0.000016  -0.000079
                            CHANNELS 3 Zrotation Xrotation Yrotation
                            JOINT RightFinger0
                            {
                                OFFSET  -2.044660  -2.323490   3.252850
                                CHANNELS 3 Zrotation Xrotation Yrotation
                                JOINT RightFinger01
                                {
                                    OFFSET  -3.088140   0.000000   0.000000
                                    CHANNELS 3 Zrotation Xrotation Yrotation
                                    JOINT RightFinger02
                                    {
                                        OFFSET  -2.639460   0.000000   0.000000
                                        CHANNELS 3 Zrotation Xrotation Yrotation
                                        End Site
                                        {
                                            OFFSET  -2.582190   0.000000   0.000000
                                        }
                                    }
                                }
                            }
                            JOINT RightFinger1
                            {
                                OFFSET  -8.364480   0.000000   3.252850
                                CHANNELS 3 Zrotation Xrotation Yrotation
                                JOINT RightFinger11
                                {
                                    OFFSET  -4.646930   0.000000   0.000000
                                    CHANNELS 3 Zrotation Xrotation Yrotation
                                    JOINT RightFinger12
                                    {
                                        OFFSET  -2.323470   0.000000   0.000000
                                        CHANNELS 3 Zrotation Xrotation Yrotation
                                        End Site
                                        {
                                            OFFSET  -2.273050   0.000000   0.000000
                                        }
                                    }
                                }
                            }
                            JOINT RightFinger2
                            {
                                OFFSET  -8.364480   0.000000   1.078090
                                CHANNELS 3 Zrotation Xrotation Yrotation
                                JOINT RightFinger21
                                {
                                    OFFSET  -5.111620   0.000000   0.000000
                                    CHANNELS 3 Zrotation Xrotation Yrotation
                                    JOINT RightFinger22
                                    {
                                        OFFSET  -2.788160   0.000000   0.000000
                                        CHANNELS 3 Zrotation Xrotation Yrotation
                                        End Site
                                        {
                                            OFFSET  -2.727660   0.000000   0.000000
                                        }
                                    }
                                }
                            }
                            JOINT RightFinger3
                            {
                                OFFSET  -7.899780   0.000000  -1.078090
                                CHANNELS 3 Zrotation Xrotation Yrotation
                                JOINT RightFinger31
                                {
                                    OFFSET  -4.646930   0.000000   0.000000
                                    CHANNELS 3 Zrotation Xrotation Yrotation
                                    JOINT RightFinger32
                                    {
                                        OFFSET  -2.323470   0.000000   0.000000
                                        CHANNELS 3 Zrotation Xrotation Yrotation
                                        End Site
                                        {
                                            OFFSET  -2.273050   0.000000   0.000000
                                        }
                                    }
                                }
                            }
                            JOINT RightFinger4
                            {
                                OFFSET  -7.435090   0.000000  -3.252850
                                CHANNELS 3 Zrotation Xrotation Yrotation
                                JOINT RightFinger41
                                {
                                    OFFSET  -3.717550   0.000000   0.000000
                                    CHANNELS 3 Zrotation Xrotation Yrotation
                                    JOINT RightFinger42
                                    {
                                        OFFSET  -1.858770   0.000000   0.000000
                                        CHANNELS 3 Zrotation Xrotation Yrotation
                                        End Site
                                        {
                                            OFFSET  -1.818440   0.000000   0.000000
                                        }
                                    }
                                }
                            }
                        }
                    }
                }
            }
        }
    }
    JOINT LeftHip
    {
        OFFSET   9.783040   0.000000   0.000000
        CHANNELS 3 Zrotation Xrotation Yrotation
        JOINT LeftKnee
        {
            OFFSET   0.000032 -41.789100  -0.002222
            CHANNELS 3 Zrotation Xrotation Yrotation
            JOINT LeftAnkle
            {
                OFFSET   0.000087 -41.133200  -0.000135
                CHANNELS 3 Zrotation Xrotation Yrotation
                JOINT LeftToe
                {
                    OFFSET   0.000000  -6.358960  14.674500
                    CHANNELS 3 Zrotation Xrotation Yrotation
                    End Site
                    {
                        OFFSET   0.000000   0.000000   3.913200
                    }
                }
            }
        }
    }
    JOINT RightHip
    {
        OFFSET  -9.783040   0.000000   0.000000
        CHANNELS 3 Zrotation Xrotation Yrotation
        JOINT RightKnee
        {
            OFFSET   0.000047 -41.789100  -0.000896
            CHANNELS 3 Zrotation Xrotation Yrotation
            JOINT RightAnkle
            {
                OFFSET  -0.000117 -41.133300  -0.000248
                CHANNELS 3 Zrotation Xrotation Yrotation
                JOINT RightToe
                {
                    OFFSET   0.000000  -6.358970  14.674500
                    CHANNELS 3 Zrotation Xrotation Yrotation
                    End Site
                    {
                        OFFSET   0.000000   0.000000   3.913200
                    }
                }
            }
        }
    }
}
MOTION
Frames: 4
Frame Time:   0.016667
  2.351660  89.516800   1.722080  -1.376080  -4.093420   1.034710   0.673462   3.645910  -1.211450   1.428530   7.276460  -2.473360   0.299066  -1.625810   0.000523   0.489268  -3.297130   9.969850  -7.927280   3.846880   1.676990 -68.207800  12.724400  -8.130290  -2.917590  -5.287220  -8.912080   3.829790  -6.320470   3.492480  40.937000  29.784600 -58.663900 -26.465800   0.000640   0.000362  -8.232120   0.007316  -0.000528 -29.216100   2.638720  -4.706030 -23.992800  -0.002841  -0.007150 -16.794900  -0.004174  -0.004574 -27.893500   0.277083  -0.506854 -31.329500  -0.010680   0.002035 -20.865400   0.008636   0.001435 -27.733200  -2.190580   4.160560 -30.781300  -0.013890   0.002242 -20.500300   0.004802   0.001551 -30.750600  -2.407670   4.038960 -46.253300  -0.002513   0.001498 -30.804700   0.000459  -0.007805   7.339960   0.065153   6.850560  72.316600   3.866510   3.859210  -0.685096  -8.919390   8.883170 -10.033900  -9.377570   2.898090 -38.871000  31.680200  62.799200  30.770100  -0.002104  -0.000087  10.391700  -0.000560   0.002674  29.570000   8.400570  14.439100  25.065300   0.002360   0.002337  17.545700   0.001484   0.000908  28.211500   5.290970   9.758100  38.195400   0.001322   0.000000  25.438100  -0.003392  -0.009461  28.322400   4.273380   7.880360  37.642200  -0.001427   0.004729  25.069700  -0.001717   0.003514  33.172600   0.645097   0.987053  49.767300   0.001963   0.006360  33.145000  -0.000404  -0.000826   2.609050   7.111140   4.029460   0.228037   0.250638  10.798600  -4.033120  -3.256450   3.254980   0.000000   0.000000  -0.000000  -1.802160   4.029340  -2.489830   0.931790   2.879960  -9.127200   0.083841  -2.924980  -1.409210  -0.000000   0.000000   0.000000
  2.351900  89.516800   1.733250  -1.375930  -4.098490   1.033920   0.673739   3.651990  -1.211660   1.429260   7.288610  -2.473940   0.298827  -1.631410   0.000541   0.489718  -3.308280   9.965980  -7.935840   3.846850   1.676830 -68.212200  12.714800  -8.116990  -2.920540  -5.289280  -8.926010   3.827340  -6.318820   3.468170  40.938700  29.796900 -58.660000 -26.462300   0.000636   0.000389  -8.230720   0.007316  -0.000526 -29.215900   2.635740  -4.701070 -23.992500  -0.002838  -0.007156 -16.794700  -0.004170  -0.004577 -27.893300   0.270445  -0.502595 -31.335500  -0.010683   0.002034 -20.869400   0.008636   0.001433 -27.732500  -2.196110   4.170680 -30.790000  -0.013901   0.002240 -20.506100   0.004799   0.001548 -30.756600  -2.414190   4.048490 -46.262900  -0.002519   0.001497 -30.811100   0.000454  -0.007810   7.340460   0.060955   6.853940  72.301000   3.884420   3.856110  -0.680238  -8.910600   8.887180 -10.034300  -9.370090   2.898030 -38.871000  31.680900  62.800100  30.776000  -0.002107  -0.000097  10.392100  -0.000557   0.002678  29.569800   8.400880  14.439700  25.065300   0.002352   0.002337  17.545700   0.001491   0.000914  28.211500   5.290970   9.758100  38.191700   0.001306   0.000000  25.435700  -0.003399  -0.009443  28.322300   4.273580   7.880360  37.632800  -0.001425   0.004716  25.063400  -0.001717   0.003516  33.168700   0.645098   0.987052  49.761300   0.001975   0.006363  33.141100  -0.000405  -0.000823   2.607500   7.132010   4.029740   0.227934   0.236201  10.798600  -4.031160  -3.258320   3.255640   0.000000   0.000000  -0.000000  -1.801910   4.040950  -2.487200   0.934505   2.880880  -9.119480   0.080566  -2.931110  -1.417510   0.000000   0.000000   0.000000
  2.352150  89.516800   1.751740  -1.375770  -4.108260   1.031990   0.674615   3.663110  -1.211880   1.431280   7.310810  -2.474570   0.298587  -1.642620   0.000573   0.491112  -3.330820   9.962230  -7.944390   3.846820   1.676660 -68.219700  12.697900  -8.093940  -2.933980  -5.290930  -8.968310   3.823310  -6.308130   3.434380  40.978100  29.843600 -58.688600 -26.456000   0.000623   0.000416  -8.228030   0.007314  -0.000516 -29.215900   2.631870  -4.693930 -23.992200  -0.002834  -0.007171 -16.794500  -0.004162  -0.004587 -27.893100   0.263806  -0.498336 -31.347400  -0.010693   0.002033 -20.877300   0.008636   0.001432 -27.731700  -2.201640   4.180810 -30.806900  -0.013934   0.002233 -20.517400   0.004791   0.001541 -30.767200  -2.420700   4.058020 -46.279500  -0.002537   0.001494 -30.822100   0.000441  -0.007826   7.341230   0.054352   6.862730  72.262500   3.902410   3.833960  -0.669656  -8.864010   8.915600 -10.035100  -9.354370   2.897900 -38.870400  31.686100  62.806300  30.782000  -0.002117  -0.000112  10.392500  -0.000553   0.002686  29.568600   8.403040  14.443900  25.065300   0.002339   0.002336  17.545700   0.001497   0.000930  28.211500   5.290970   9.758100  38.188000   0.001265   0.000000  25.433300  -0.003418  -0.009411  28.322100   4.273780   7.880360  37.623400  -0.001421   0.004683  25.057200  -0.001715   0.003519  33.164700   0.645099   0.987052  49.755300   0.002004   0.006368  33.137100  -0.000412  -0.000817   2.605280   7.161530   4.030170   0.227832   0.221765  10.798500  -4.028780  -3.267660   3.256320   0.000000   0.000000   0.000000  -1.801540   4.061580  -2.482390   0.942220   2.882000  -9.108300   0.072661  -2.940970  -1.430120   0.000000   0.000000   0.000000
  2.352110  89.516700   1.766300  -1.375830  -4.119060   1.028890   0.675885   3.673950  -1.211520   1.434000   7.332440  -2.473980   0.300412  -1.655540   0.000603   0.494183  -3.357170   9.973870  -7.943720   3.854040   1.678380 -68.219800  12.677600  -8.077360  -2.953560  -5.206340  -9.032530   3.821040  -6.291510   3.423510  41.056200  29.980200 -58.840600 -26.450300   0.000600   0.000403  -8.225210   0.007308  -0.000490 -29.220600   2.630840  -4.690140 -23.996300  -0.002830  -0.007197 -16.797400  -0.004149  -0.004600 -27.895200   0.264496  -0.499620 -31.360900  -0.010710   0.002031 -20.886300   0.008638   0.001431 -27.731800  -2.201360   4.180140 -30.826600  -0.013986   0.002223 -20.530500   0.004781   0.001533 -30.778800  -2.420500   4.057310 -46.297300  -0.002565   0.001490 -30.834000   0.000421  -0.007851   7.351850   0.050120   6.874250  72.208400   3.900170   3.790600  -0.652101  -8.799750   8.972830 -10.028300  -9.328770   2.905320 -38.886400  31.726900  62.870300  30.780300  -0.002134  -0.000118  10.391200  -0.000573   0.002691  29.574700   8.415720  14.461200  25.073000   0.002332   0.002330  17.551100   0.001490   0.000953  28.212100   5.288970   9.754620  38.214600   0.001197   0.000022  25.450900  -0.003446  -0.009380  28.323100   4.273760   7.877450  37.641400  -0.001419   0.004631  25.069200  -0.001710   0.003522  33.181600   0.641566   0.981044  49.780600   0.002051   0.006371  33.153900  -0.000430  -0.000810   2.604540   7.169810   4.030430   0.227781   0.247580  10.799500  -4.030410  -3.294170   3.256170  -0.000000   0.000000   0.000000  -1.801450   4.082690  -2.476290   0.955985   2.882150  -9.103050   0.060722  -2.947820  -1.439070  -0.000000   0.000000  -0.000000
